<?xml version="1.0" encoding="UTF-8" standalone="no"?>
<!-- Created with Inkscape (http://www.inkscape.org/) -->

<svg
   version="1.1"
   id="svg1"
   width="545"
   height="575"
   viewBox="0 0 545 575"
   sodipodi:docname="amity.svg"
   inkscape:version="1.3.2 (091e20e, 2023-11-25, custom)"
   xmlns:inkscape="http://www.inkscape.org/namespaces/inkscape"
   xmlns:sodipodi="http://sodipodi.sourceforge.net/DTD/sodipodi-0.dtd"
   xmlns="http://www.w3.org/2000/svg"
   xmlns:svg="http://www.w3.org/2000/svg">
  <defs
     id="defs1" />
  <sodipodi:namedview
     id="namedview1"
     pagecolor="#ffffff"
     bordercolor="#000000"
     borderopacity="0.25"
     inkscape:showpageshadow="2"
     inkscape:pageopacity="0.0"
     inkscape:pagecheckerboard="0"
     inkscape:deskcolor="#d1d1d1"
     inkscape:zoom="1.4417391"
     inkscape:cx="194.9035"
     inkscape:cy="337.78649"
     inkscape:window-width="1920"
     inkscape:window-height="1046"
     inkscape:window-x="-11"
     inkscape:window-y="-11"
     inkscape:window-maximized="1"
     inkscape:current-layer="g1" />
  <g
     inkscape:groupmode="layer"
     inkscape:label="Image"
     id="g1">
    <path
       style="fill:#000000"
       d="m 248.33034,552.14019 c 0.6377,-11.85981 0.6377,-11.85981 -4.28221,-27.25 -2.70595,-8.46461 -6.09762,-20.11519 -7.53705,-25.89019 -3.48272,-13.97273 -12.79951,-39.68843 -15.27652,-42.16544 -0.42721,-0.42721 -5.46824,-3.29157 -11.20229,-6.36526 -5.73405,-3.07369 -17.42456,-9.65671 -25.97891,-14.62893 -13.86544,-8.0593 -38.6448,-21.983 -72.25342,-40.59971 C 87.325986,381.68388 84.724413,378.02741 81.390042,352.5 77.245411,320.76936 85.936252,296.08871 105.75,283.32145 c 2.99442,-1.92949 5.25,-4.12347 5.25,-5.1066 0,-0.94804 2.25,-8.24472 5,-16.21485 6.04335,-17.51502 6.01492,-16.44405 0.62793,-23.65092 -2.40465,-3.21699 -5.39332,-7.86847 -6.6415,-10.3366 -2.28081,-4.51002 -6.98643,4.90706 -6.98643,13.9815 0,1.43331 -0.50243,3.10845 -1.11651,3.72253 -1.84249,1.84249 -0.73668,21.23144 1.38339,24.256 9.10496,12.98936 -16.351375,4.26118 -28.306157,-9.70529 -8.05877,-9.41486 -11.157632,-16.8863 -10.791519,-26.01865 0.181938,-4.53828 0.180796,-7.80078 -0.0025,-7.25 -0.573848,1.724 -4.047543,1.09253 -5.131483,-0.93283 -5.97628,-11.16678 12.485644,-45.16763 29.396529,-54.13883 5.392226,-2.86057 5.218574,-2.49355 6.131531,-12.9595 0.722662,-8.28444 0.722662,-8.28444 -7.920291,-7.62009 -10.466364,0.80451 -11.774621,-1.28532 -4.767563,-7.61578 9.906266,-8.94971 20.27761,-12.27907 35.62461,-11.43601 9.21805,0.50637 10.35188,0.36151 14.5,-1.85256 12.52695,-6.68629 19.23864,-8.84886 28.1716,-9.07716 8.28812,-0.21182 9.01952,-0.4223 16.53917,-4.75963 C 233.53999,83.827117 312.44263,73.124995 367.5,90.72809 c 52.38753,16.74949 62.16155,27.57575 43.6762,48.37823 -4.09324,4.60633 -4.09324,4.60633 -2.19178,9.61057 2.56627,6.75386 5.99103,36.91756 6.04973,53.28311 0.0197,5.5 0.0197,5.5 18.15545,24 58.41489,59.5882 68.50607,73.82593 62.50491,88.1887 -10.60521,25.38185 -71.65336,93.93094 -114.58744,128.66671 -7.91612,6.40453 -15.03814,12.16944 -15.82672,12.81093 -1.22807,0.99899 -1.04077,2.21856 1.30539,8.5 3.53865,9.4741 3.66959,32.72744 0.34785,61.77236 -1.56265,13.66362 -1.94474,21.13398 -1.44804,28.3113 0.67474,9.75 0.67474,9.75 -58.55908,9.75 -59.23382,0 -59.23382,0 -58.59613,-11.85981 z M 360,551 c 0,-8.18386 -0.006,-8.18929 -7.00574,-6.45425 -5.84049,1.44768 -46.04878,3.70816 -50.09464,2.81629 -7.83262,-1.72663 -9.3493,-6.27499 -9.10043,-27.29114 0.18596,-15.70395 -0.21509,-15.04242 9.56787,-15.7823 8.2724,-0.62564 8.55235,-0.83914 5.77434,-4.40374 -1.02224,-1.31167 -2.65822,-3.95986 -3.63552,-5.88486 -0.97731,-1.925 -5.00306,-8.45 -8.94611,-14.5 C 286.13737,463.50848 284,460.10599 284,459.50606 284,458.88785 276.80227,447.75182 275.91675,447 c -0.3239,-0.275 -2.25237,-3.49453 -4.2855,-7.15452 -2.64768,-4.7663 -5.30933,-7.87215 -9.38023,-10.94571 -5.89156,-4.44817 -6.45492,-5.00631 -14.74857,-14.61176 -4.89569,-5.67005 -37.0324,-37.89448 -41.02942,-41.14142 -1.11483,-0.90562 -3.05798,-3.10909 -4.31809,-4.89659 -1.26012,-1.7875 -2.883,-3.25 -3.6064,-3.25 -0.7234,0 -1.55004,-0.89773 -1.83697,-1.99495 -0.28693,-1.09723 -1.31754,-2.30035 -2.29024,-2.67361 C 192.58869,359.62819 189,356.40529 189,355.4627 c 0,-0.29552 -1.9125,-2.51291 -4.25,-4.92754 -2.3375,-2.41462 -5.83888,-6.11033 -7.78085,-8.21269 C 171.25108,336.13213 163.34298,329 162.19721,329 c -0.58434,0 -1.34078,-0.87698 -1.68097,-1.94885 -0.3402,-1.07186 -1.40564,-2.19866 -2.36764,-2.50399 -2.21828,-0.70405 -4.14186,-12.99189 -4.16391,-26.59906 -0.008,-5.19645 -0.36952,-10.00581 -0.80245,-10.68746 -3.16815,-4.98837 -29.42144,-7.7723 -37.18224,-3.94285 -6.64013,3.27646 -20,14.39659 -20,16.64705 0,0.36192 -0.803984,1.53039 -1.78663,2.5966 C 81.587491,316.261 83.289724,363.50967 96.852221,375.80768 103.73846,382.05189 132.52532,399 136.24505,399 c 0.79474,0 2.29761,0.94215 3.33971,2.09366 1.04211,1.15152 5.42031,3.85292 9.72934,6.00312 4.30903,2.15019 9.79472,5.25805 12.19043,6.90633 2.3957,1.64829 4.8285,2.99689 5.40623,2.99689 0.57772,0 3.51253,1.575 6.52179,3.5 3.00926,1.925 5.88789,3.5 6.39697,3.5 0.50907,0 1.47608,0.6633 2.1489,1.474 0.67282,0.8107 5.06172,3.6232 9.7531,6.25 4.69139,2.6268 11.0585,6.22652 14.14914,7.99938 3.09064,1.77286 7.19434,4.03041 9.11934,5.01677 5.38348,2.75847 9.17204,5.37994 12.97084,8.97508 1.90897,1.80662 3.82147,3.28477 4.25,3.28477 0.42854,0 0.77916,0.675 0.77916,1.5 0,0.825 -0.49878,1.5 -1.10841,1.5 -1.50223,0 -0.5507,3.43645 3.1883,11.51457 3.22609,6.96998 4.22411,10.07973 8.98149,27.98543 1.60743,6.05 3.64352,12.8 4.52464,15 5.04183,12.58858 8.17579,30.70745 6.40518,37.03142 -1.77028,6.32282 -5.0114,5.9184 51.8412,6.46858 60.23367,0.5829 53.1676,1.51321 53.1676,-7 z m -18,-10.13646 c 14.27742,-1.31193 13,-0.0558 13,-12.78299 0,-21.85071 2.59773,-20.07409 -28.37981,-19.40928 -32.11742,0.68927 -28.63082,-1.41001 -27.61622,16.6277 1.11214,19.77184 0.32199,19.48581 42.99603,15.56457 z m 19,-4.61967 c 0,-2.61587 0.69752,-10.60337 1.55004,-17.75 4.14778,-34.77046 0.54037,-57.10977 -13.65008,-84.52968 C 344.35146,425.17522 344.1719,424 347.37756,424 c 2.9381,0 3.44142,0.66805 7.53419,10 7.41826,16.91442 6.32628,15.43551 9.3369,12.64536 2.62286,-2.43078 15.89139,-12.75373 20.08715,-15.62785 1.19031,-0.81536 2.50501,-2.01882 2.92156,-2.67436 0.41655,-0.65553 5.59155,-5.56468 11.5,-10.90921 5.90845,-5.34454 14.77558,-13.36608 19.70473,-17.82564 16.20899,-14.6648 37.82096,-37.11987 39.80546,-41.3583 0.57941,-1.2375 1.43125,-2.25 1.89297,-2.25 0.46171,0 0.83948,-0.675 0.83948,-1.5 0,-0.825 0.38362,-1.5 0.85248,-1.5 0.46887,0 3.0478,-2.8125 5.73095,-6.25 6.11201,-7.83034 6.67652,-8.54144 7.9661,-10.0347 0.57725,-0.66842 2.80442,-4.1403 4.94927,-7.7153 2.14485,-3.575 4.48414,-7.20942 5.19842,-8.07648 7.29157,-8.85124 7.87709,-19.42648 1.49559,-27.01238 -0.6529,-0.77613 -2.9918,-3.88614 -5.19756,-6.91114 -5.24169,-7.18852 -23.26614,-27.05941 -37.41977,-41.2531 -3.92452,-3.93563 -3.92452,-3.93563 -5.79238,-1.59126 -3.86607,4.85233 -9.63734,13.81136 -10.32982,16.03549 -0.39538,1.26988 -2.22597,5.58661 -4.06799,9.59274 -5.09593,11.08296 -6.77551,17.65799 -5.46847,21.40738 0.59575,1.70896 1.08813,4.95255 1.09419,7.20797 0.0293,10.90998 0.85457,12.03507 5.20374,7.09415 4.01375,-4.55986 7.36983,-5.73951 8.43461,-2.96474 0.37338,0.97302 -1.22824,3.44756 -4.40642,6.80801 -9.87099,10.43712 -11.95959,21.43175 -6.67983,35.16336 8.633,22.45274 6.12816,26.25797 -28.77653,43.71585 -31.31479,15.66235 -36.03441,16.4057 -31.8728,5.02003 1.05258,-2.87973 1.74305,-5.23588 1.53438,-5.23588 -6.17792,0 -18.87956,9.96716 -22.7804,17.87611 -4.67631,9.48121 -12.69386,20.34638 -18.3798,24.9078 -3.63055,2.91253 -3.63055,2.91253 -0.9653,13.81431 5.4829,22.42687 8.67734,42.18426 8.67734,53.66868 0,5.89406 0,5.89406 13.39556,5.18417 16.95919,-0.89874 16.00185,-2.13834 16.06114,20.79658 0.0238,9.21121 0.3808,16.74871 0.7933,16.75 0.4125,0.001 0.75,-2.13791 0.75,-4.75378 z M 240.08383,389.09082 c -4.18202,-12.48249 -13.55784,-31.14587 -23.18967,-46.16104 -7.53751,-11.75032 -7.22365,-11.60323 -15.59462,-7.30836 -4.57148,2.34547 -9.10248,3.83816 -12.89306,4.24748 -5.84451,0.6311 -5.84451,0.6311 2.90666,9.6311 8.75118,9 8.75118,9 5.22159,3 -3.92286,-6.66853 -4.53132,-9.83857 -1.78698,-9.31006 2.21236,0.42606 7.79878,9.69987 9.94714,16.51288 1.17066,3.7125 3.05588,6.57695 6.58143,10 5.79366,5.62522 5.76735,4.98377 -0.37765,-9.20456 C 206.62489,350.63041 206.27879,349 208.45785,349 c 2.91324,0 9.86888,14.86656 11.68834,24.98193 0.93973,5.22449 1.56077,6.09149 11.67317,16.29601 12.04134,12.15104 12.7014,12.05622 8.26447,-1.18712 z m 94.24629,5.79516 c 23.0118,-5.70511 61.30708,-32.8515 75.38527,-53.43839 6.97605,-10.20125 8.15537,-30.07572 3.14184,-52.94759 -1.51413,-6.90749 -2.21756,-13.63236 -2.27462,-21.74565 -0.0454,-6.46011 -0.18355,-11.74761 -0.30693,-11.75 -0.9001,-0.0175 -3.29535,6.82037 -4.72745,13.49565 -2.68621,12.52095 -11.96485,29.5 -16.12103,29.5 -0.78496,0 -1.4272,0.47296 -1.4272,1.05103 0,8.52181 -26.12491,3.37186 -32.75,-6.45594 -5.73844,-8.51253 -3.1431,-10.89845 2.96108,-2.72214 14.80534,19.83115 38.93197,7.69735 41.52356,-20.88308 1.07429,-11.84755 -4.29224,-13.60596 -33.98464,-11.13547 -2.36485,0.19676 -2.22265,3.40788 0.25,5.6456 4.05102,3.66613 1.13254,8.5 -5.13193,8.5 -4.73397,0 -7.45012,-3.33975 -6.51573,-8.01168 0.68646,-3.43233 -0.19839,-3.74332 -3.36198,-1.1816 -2.5695,2.08066 -2.13392,10.90686 0.67698,13.71776 5.72515,5.72515 18.61401,-0.0561 21.48445,-9.63679 1.56775,-5.23265 4.2025,-5.34394 3.25987,-0.13769 -2.66866,14.73943 -24.83127,21.78298 -29.10522,9.25 -5.49211,-16.10512 4.58728,-22.38754 40.22878,-25.07435 23.35541,-1.76062 22.84496,-1.42817 23.68461,-15.42565 2.45884,-40.99035 -3.10698,-62.23405 -21.54635,-82.2384 -5.47964,-5.94472 -14.07156,-5.52898 -40.02876,1.93689 -10.85528,3.12222 -10.85528,3.12222 -19.5,0.9585 -32.52895,-8.14179 -77.3689,-4.52842 -111.16183,8.95783 -9.72358,3.88054 -9.02847,1.95715 -7.00572,19.38518 4.30296,37.0745 -14.24071,102.06295 -24.42191,85.58941 C 186.30817,268.07157 161.46568,255 158.87788,255 c -4.09206,0 -0.57779,9.28398 5.77297,15.25101 C 172.7985,277.90636 186,293.54284 186,295.53796 c 0,2.76541 -3.76675,1.45655 -6.58451,-2.28796 -4.47637,-5.94862 -16.62136,-19.15487 -19.123,-20.79401 -2.28054,-1.49427 -2.28054,-1.49427 -1.72438,13.27487 1.20572,32.01871 1.39363,32.74895 10.61977,41.26808 12.25495,11.31585 20.96174,11.98895 33.30448,2.57468 7.42807,-5.66566 11.98511,-1.22954 28.00356,27.2605 6.74381,11.99438 7.47065,12.56946 27.00408,21.36555 22.82311,10.27747 56.93978,20.22075 65.5,19.08992 1.925,-0.2543 7.02355,-1.33592 11.33012,-2.40361 z M 266.98784,305.9993 c -12.2975,-2.0862 -23.19716,-11.41216 -31.5295,-26.97724 -4.15046,-7.7532 -6.09489,-10.23743 -11,-14.05375 -8.41866,-6.54997 -8.46951,-8.23006 -0.22352,-7.38523 4.16657,0.42687 10.55472,0.0466 18.33027,-1.09126 20.13258,-2.94608 46.8469,-1.29317 65.16478,4.03198 6.5201,1.89545 7.73526,5.16428 1.52013,4.08924 -29.65345,-5.12923 -35.25,-4.85313 -35.25,1.73908 0,11.78592 -11.73383,19.95082 -23.94578,16.66248 -5.15397,-1.38782 -5.93306,-4.64346 -0.80422,-3.3606 C 260.63862,282.50259 271,275.58451 271,265.13197 271,261 271,261 265.5,261 c -6.09448,0 -6.47119,0.49561 -3.37174,4.43593 3.3394,4.24536 1.3719,7.56407 -4.48438,7.56407 -5.36962,0 -7.14124,-1.80942 -7.00118,-7.15058 0.10205,-3.89216 0.10205,-3.89216 -3.52032,-3.23083 -6.77605,1.23709 -8.31423,2.16793 -7.65451,4.63219 0.33118,1.23707 1.06834,4.04922 1.63813,6.24922 8.5373,32.96288 49.95417,41.32178 63.17398,12.75 1.23069,-2.65986 3.72002,-3.00024 3.72002,-0.50866 0,12.4989 -22.17701,23.45323 -41.01216,20.25796 z M 155,261.65554 c 0,-19.25231 0.012,-19.3583 2.52541,-22.25 8.50301,-9.78291 10.04047,-22.38939 5.41563,-44.40554 -4.26941,-20.32414 -2.93569,-53.82058 2.73095,-68.58759 C 166.10214,125.29143 164.96113,125 160.14217,125 c -7.1716,0 -6.48324,-0.87991 -12.26983,15.68405 C 142.89639,154.92759 141.40631,158 139.47432,158 c -2.00859,0 -1.85395,-1.97765 0.64219,-8.21298 7.44386,-18.59467 8.01578,-21.82168 3.557,-20.07011 -6.8035,2.67266 -8.18266,3.9767 -10.60305,10.02546 C 128.1547,152.0273 118.60283,171 117.33371,171 c -2.07547,0 -1.62028,-2.12511 2.27586,-10.62516 11.78532,-25.7115 11.69361,-25.3125 5.04228,-21.9376 C 118.61572,141.5 118.61572,141.5 113.95829,155 c -6.23736,18.07953 -6.65157,19 -8.55012,19 -2.01024,0 -1.81657,-0.96002 3.00756,-14.90888 4.2267,-12.22139 4.26365,-12.11657 -3.15549,-8.9504 -5.698367,2.43182 -5.76381,2.50723 -6.428768,7.40806 -2.772797,20.43582 -3.833774,29.43708 -3.832707,32.51639 0.0015,4.41589 11.359385,23.94575 23.806195,40.93483 9.89442,13.50523 9.91499,13.54699 7.81632,15.86599 -0.8917,0.98532 -1.62128,2.23124 -1.62128,2.76872 0,1.37189 -8.78954,25.43495 -10.17839,27.86529 -1.05778,1.851 -1.00764,1.88825 0.673,0.5 3.0496,-2.51906 26.539,-2.0258 33.00539,0.69308 2.75,1.15628 5.3375,2.14836 5.75,2.20462 0.4125,0.0563 0.75,-8.60271 0.75,-19.24216 z m -56.984379,6.39893 c -3.092896,-10.7843 -1.939534,-25.3303 3.230899,-40.74753 3.08305,-9.19305 3.08305,-9.19305 -3.581733,-20.32837 -7.220107,-12.06313 -7.805081,-14.82663 -5.763711,-27.22857 0.947899,-5.75878 0.674752,-5.79668 -5.625317,-0.78049 -11.165886,8.89041 -20.82868,25.01384 -23.690676,39.53049 -0.591458,3 -0.591458,3 0.917226,0.30046 C 65.498281,215.22901 75.672115,207 78.091668,207 c 2.668849,0 2.3765,2.39335 -0.696071,5.69848 -7.987632,8.59219 -10.696852,23.34443 -6.023933,32.80152 2.470591,5 2.470591,5 2.549464,0.17668 0.118893,-7.27076 2.997232,-6.14182 4.648701,1.82332 2.322658,11.20233 5.336817,15.68465 13.818539,20.54941 6.349682,3.64192 6.670373,3.6422 5.627253,0.005 z M 181.15112,248.5 c 17.5121,-21.69275 28.89497,-46.98657 27.426,-60.94318 -1.5286,-14.52317 -2.26436,-16.4008 -6.89374,-17.59247 -2.30086,-0.59227 -5.53338,-1.4918 -7.18338,-1.99895 -5.26875,-1.61944 -28.70544,-5.10054 -30.27769,-4.49721 -2.08538,0.80023 -1.14294,12.08236 2.38339,28.53181 5.05394,23.57534 3.79591,38.08038 -4.21268,48.57221 -5.25068,6.87877 -4.74163,8.55985 3.85698,12.73713 8.78,4.2654 7.15078,4.79123 14.90112,-4.80934 z m 29.17081,-84.88617 c 4.11144,-2.34812 17.12879,-6.86673 23.35897,-8.10843 1.7495,-0.34867 3.7171,-1.28003 4.37245,-2.06968 0.65535,-0.78965 1.99894,-1.43572 2.98576,-1.43572 0.98682,0 1.99793,-0.5625 2.2469,-1.25 0.34579,-0.95484 0.90857,-0.98233 2.38332,-0.11644 1.46699,0.86133 3.71982,0.77656 9.38066,-0.353 9.41636,-1.87892 9.91143,-1.92395 30.95001,-2.81509 18.2063,-0.77117 29.17958,0.079 41.85028,3.24257 7.68923,1.91979 7.54955,2.0647 9.19707,-9.54159 2.36933,-16.69132 -8.72153,-45.009834 -20.7025,-52.860062 C 311.4912,85.126154 269.82721,87.767241 249,92.575389 c -25.06751,5.787056 -72.959,26.276331 -78.74233,33.688091 -4.54621,5.8263 -2.86757,9.43447 3.13048,6.72885 12.97596,-5.85326 41.03672,-13.95442 48.43517,-13.98327 5.31718,-0.0207 1.86401,3.36289 -4.81071,4.71384 -19.52802,3.95242 -49.38736,15.50236 -50.99263,19.72455 -3.63659,9.56494 -2.32123,15.37275 3.62267,15.9954 7.76905,0.81385 28.33375,4.53603 30.85735,5.58514 3.33502,1.38643 5.4519,1.08164 9.82193,-1.41416 z m 147.1804,-15.13808 c 15.73389,-3.97256 29.18064,-4.45484 33.06553,-1.18592 3.04717,2.56402 3.04717,2.56402 9.07765,-3.1129 24.97402,-23.50984 20.71448,-30.89859 -27.14551,-47.087599 -11,-3.720834 -11,-3.720834 -11,10.344919 0,17.89942 -4.23394,31.19756 -13.31355,41.81575 -1.85398,2.16815 -2.57541,2.22811 9.31588,-0.77425 z"
       id="path1" />
  </g>
</svg>
