<svg xmlns="http://www.w3.org/2000/svg" width="400" height="400" version="1.0" viewBox="0 0 300 300"><path d="M150.7 9.6c-.4.4-.7 1.7-.7 2.8 0 3.4-3.5 8.3-14.3 19.7-12.4 13.3-16.1 18.6-19.1 27.1l-2.3 6.6-2.9-1.9c-9.5-6.5-19.9-10.3-34.9-12.9-9.5-1.6-14.3-2.9-22.8-6.5-1.7-.7-1.8-.1-1.5 9.6.1 5.8-.3 12.8-1 15.8-1.7 7.5-1.5 21.7.4 28.2.9 3 2.9 7.8 4.5 10.8 1.7 2.9 2.9 5.4 2.7 5.5-.2.1-2.3.8-4.8 1.5-8.2 2.4-15.4 6.8-24.5 15-9.7 8.8-15.3 12.1-20.3 12.1-3.9 0-4.2 1.5-.5 2.5 4.2 1 7.9 3.9 20.8 16.4C42 174 49.1 178.7 58.3 181.1c4.3 1 4.6 1.3 3.4 2.8-6.8 7.8-11.6 22.8-12.7 39-.5 8.3-1.4 14.7-2.8 18.6-1.1 3.3-1.9 6.2-1.6 6.6.2.3 3.8 0 8-.7 5.1-.9 9.1-1.1 11.8-.5 8.1 1.7 18.4 2.2 25.2 1.1 7-1.1 17.5-5.3 22.1-9 3.5-2.7 3.9-2.6 4.6 1.5 1.4 8.4 7.2 17.6 18.5 29.1 10.9 11.3 14.2 16 14.2 20.8 0 1.4.5 2.6 1 2.6.6 0 1-.8 1-1.8.1-4.1 4.5-10.7 14-20.9 5.6-5.9 11.7-13.2 13.7-16.1 3.6-5.5 7.3-14.6 7.3-18.2 0-2.6.8-2.5 5.3.6 9.6 6.5 21.9 10.2 38.2 11.4 9.8.7 14.1 1.7 20.9 4.5 1.8.8 1.9.5 1.1-7.1-.9-9.1-.9-9.5 0-23.4 1-15.3-2.4-27.8-10.1-36.9-1.4-1.8-2.5-3.3-2.3-3.4.2-.2 3.1-1.1 6.4-2.1 11.1-3.3 17-7.3 27.3-18.2 10.5-11 16.2-15.4 19.8-15.4 1.3 0 2.4-.5 2.4-1 0-.6-.8-1-1.7-1-3.8-.1-10.3-4.1-21.3-13.3-11.9-10-21.4-15.5-28.1-16.4-2.2-.3-3.8-.8-3.7-1.2.2-.3 1.5-2.9 2.9-5.6 4.9-9.3 7-18 7.9-33 .4-8 1.5-16.3 2.5-19.3.9-3 1.4-5.6 1.2-5.8-.2-.3-2.6.1-5.3.8-2.7.6-11.6 1.2-19.9 1.3-11.2.1-16.5.6-21 1.9-7.7 2.3-16.5 7-20.1 10.7l-2.8 2.9-1.3-5.2c-2.9-11.3-7.7-19.3-18.2-30.2-10.4-10.9-11.8-12.7-13.6-18.9-.6-2.1-1.4-3.5-1.8-3.1zm7.3 26.8c2.2 2.8 5.8 7.3 8.1 10.1 2.2 2.7 5.1 7.3 6.5 10 2.8 5.9 4.9 18.8 3.5 21.4-.6 1-2.6 7.3-4.7 14.1-2 6.9-5.3 16.8-7.4 22.2-2.1 5.4-3.5 9.8-3.1 9.8.4 0 3.3-2.6 6.3-5.8 4.4-4.5 7.2-9.1 12.8-20.6 6-12.4 8.2-15.8 13.3-21 8.1-8.2 13.5-10.7 25.1-11.7 14.3-1.3 16.8-1.8 21.5-4.4 2.3-1.4 4.5-2.5 4.6-2.5.2 0-.7 1.9-2.1 4.3-1.4 2.7-2.8 7.4-3.4 12.3-3.3 24.6-4.1 27.3-11.1 34.9-4.7 5.1-14 12.1-20.4 15.3-2.2 1.1-10.1 4.1-17.5 6.8-12.9 4.6-13.3 4.9-10 5.6 16 3.6 37.6-2.1 49.1-12.9l4.8-4.5 5.3 1.2c8.7 2.1 13.4 4.8 22.5 13.2 5.8 5.2 10.3 8.4 13.4 9.5l4.8 1.7-4.2 2.4c-2.3 1.3-8.1 6.1-12.8 10.8-9.8 9.5-18.2 14.2-27.3 15.1-5 .5-6.2.2-13.4-3.5-8.3-4.4-17.4-7.2-31.2-9.7-4.7-.9-10.7-2.3-13.4-3.1l-4.9-1.4 2.4 2.6c3.6 3.8 7.6 6 17.4 9.5 21.6 7.5 37.5 18.9 43.1 30.7 2.3 4.8 2.9 7.6 3.5 18.2.8 13.7 1.5 17 5.4 23.5 3.2 5.6 3.2 6.1-.5 3.5-5-3.6-13.3-6.7-23.2-8.9-19.2-4.1-22.4-5.8-32.9-16.9-8.6-9-12.4-15.3-21.1-34.3-3.5-7.6-6.6-13.9-7-13.9-.5 0-.8 3.5-.8 7.9 0 14.4 6.6 32.8 15.9 43.9l5.3 6.4-1.7 6.6c-2.5 10-5.7 15.1-16 25-6.9 6.7-9.6 10-10.7 13.3l-1.5 4.4-2-4.6c-1.1-2.5-4.1-6.8-6.6-9.7-13.4-15-16.7-22.1-16.7-35.5 0-9.7 2.2-19 8.2-34.5 3.9-10.4 8.1-24.3 7.4-25-.2-.2-1.4 1.2-2.7 3-1.3 1.8-4.3 5.8-6.8 8.8-5.7 7-11.3 18.7-15.6 32.7-3.2 10-3.9 11.5-7.4 14.2-2.2 1.7-6.6 4.3-9.8 5.8-5.4 2.5-6.7 2.7-19.8 2.8-13 0-14.4.2-19.3 2.6-5 2.5-6.8 2.5-3.7-.1 2.4-2 5.2-10.9 6.4-20.7 1.9-15.5 4.1-21 11.6-29.1 8.6-9.2 17.2-15 33-21.8 7.2-3.1 13.4-6 13.9-6.5.6-.5-1-1-4-1.1-16.6-.7-32.4 4.1-43.4 13.2l-4.5 3.7-6-1.6c-10.3-2.9-13.7-5.1-24.5-16.2-6.3-6.5-11.6-11-13.2-11.4-3.3-.9-2.9-2 1-2.8 1.6-.3 7.7-4.2 13.7-8.7 10.8-8.1 14.6-10.2 22-12.2 3.9-1 4.3-.9 9.2 2.6 5.8 4.2 15.8 8.8 22.3 10.4 2.5.6 10 1.8 16.6 2.6 6.6.8 12.8 1.8 13.9 2.1 1.3.4.5-.7-1.9-2.9-2.8-2.5-6.1-4.2-11-5.7-16.9-4.8-29.1-11.5-37.6-20.6-8.7-9.3-10.2-14.1-10.4-32.8-.1-14.2-.3-15.3-2.9-20.9-1.5-3.2-2.5-6.1-2.3-6.3.2-.2 1.8.9 3.6 2.5 4.5 4.1 13.8 8.4 25 11.6 14.1 4 18.8 6.6 26.9 15.2 9.4 9.9 13.2 16 20.7 33.2l6.2 14.4.8-4.7c1-6.9-.2-15.5-3.6-25.7-3.5-10.4-6.3-15.6-11.9-21.6l-3.9-4.2 1.5-5.7c2.4-9.4 5.7-14.3 15.7-24.1 6.8-6.7 10-10.6 11.2-13.9l1.8-4.6 1.3 3.8c.7 2.1 3.1 6.1 5.3 8.9zm15.5 10.1c2.5 4.1 4.7 9.5 4.1 9.5-.3 0-1.8-2.2-3.4-4.8-1.6-2.6-5-7.4-7.6-10.5-2.5-3.1-4.6-6-4.6-6.4 0-1.5 9.2 8.3 11.5 12.2zM85.6 57c4.3 1.1 12.5 4.3 18 7.1 8.6 4.3 10.5 4.9 12.3 4 1.9-1.1 2.1-.9 2.1 2 0 2.3 1.5 5.1 5.5 10.3 4.7 6.2 10.5 18.2 10.5 21.9 0 .6-2-2.2-4.4-6.3-11-18.6-22.1-28.3-38-33.1-13-3.9-18.5-6-19.2-7-.9-1.5 4.9-1 13.2 1.1zm163.4-.7c0 2.1-1.2 2.8-2.7 1.6-1.9-1.6-1.6-2.9.7-2.9 1.1 0 2 .6 2 1.3zm-13 .6c0 1.6-6 2.9-16 3.5-8.1.5-10.5 1.1-16.7 4.2-8.1 3.9-15 10.3-20.1 18.5-1.8 3-4.5 7.2-5.8 9.4l-2.5 4 .7-3.5c.3-1.9 1.5-6.1 2.5-9.2 1.2-3.5 1.9-8.5 1.9-12.9v-7.2l2.1 2.7c2.7 3.4 4.4 3.3 10.7-1 5.8-3.9 12.8-7.1 18.2-8.4 4.9-1.1 25-1.2 25-.1zm9.4 32.1c-.9 4.1-3.2 10.9-5.1 15-2.1 4.7-3.2 8.3-2.8 9.7.4 1.9.1 2.3-1.9 2.3-1.3 0-5 2.2-8.7 5.1-6.9 5.6-14.4 9.4-20.5 10.4-3.6.6-3.3.3 3.6-3.5 10.3-5.8 20-13.8 24.2-20.2 4.6-6.8 6.6-13.8 7.9-26.6.5-5.6 1.7-12.2 2.7-14.5l1.7-4.2.3 9.5c.2 6.2-.3 12.1-1.4 17zM59 81.3c.6 15.4.7 16.5 3.5 22.2 3.8 7.6 11.9 15.8 21.7 22 4.3 2.7 7.6 5 7.4 5.2-.8.9-11.7-4.1-18.1-8.3-5.7-3.7-7.6-4.4-10.2-4-3.5.5-4-.3-2.1-3.3 1-1.6.5-3.3-2.8-10.3l-3.9-8.3V83c.1-12.7 1.4-20.4 3.3-18.6.4.4.9 8 1.2 16.9zm-15.5 45.2c-1.6 1.4-5 3.9-7.5 5.7l-4.5 3.1 3.5-3.7c3-3.2 9.3-7.5 11-7.5.3 0-.8 1.1-2.5 2.4zm44.1 44.7C83.3 174 76.7 179.3 73 183c-9 8.9-12.5 16.2-14.5 30-3 21.3-6.1 26.8-5.2 9.4.6-12.5 3.1-21.6 8.4-31.3 2.6-4.7 3.4-7 2.9-9.2-.5-2.7-.3-2.9 2.6-2.9 2.1 0 4.8-1.3 8.4-4.1 5.1-3.9 15.3-8.8 18.4-8.9.8 0-2 2.3-6.4 5.2zm134.6 3.4c4.7 2.4 8.1 3.4 11.3 3.4 4.3 0 4.4.1 3.4 2.4-1 2-.5 3.3 3 9.2 6.4 11 7.4 14.4 7.5 27.4.1 6.3-.3 12.4-.7 13.5-.8 2-.8 2-1.9 0-.7-1.1-1.4-7.4-1.8-14.2-.6-10.9-1-12.8-3.8-18.6-4.3-8.7-9.8-14.6-19.8-21.3-4.6-3.1-8.4-5.8-8.4-6.1 0-.8 4.3.8 11.2 4.3zm-96.5 27.1c-3.9 12.3-5 19.5-4.5 29.6.6 11.3 2.9 16.6 12.3 28.5 6.8 8.5 6 9.8-1.1 2-5.1-5.5-7.7-9.8-10.4-17.5-2.4-6.6-5.1-10.3-7.6-10.3-.9 0-4.3 1.5-7.7 3.4-10 5.5-16.1 6.9-29.8 6.5-7.4-.3-12.2-.8-13-1.6-1.7-1.7 1.2-2.2 16.6-2.5 12.2-.3 13.4-.6 19.7-3.5 4-1.9 8.8-5.2 11.6-8 4-4.1 5.1-6 7.1-12.8 2.2-7.7 8.3-22.6 8.9-22 .2.2-.8 3.8-2.1 8.2zm50.2 8.3c11.7 17.5 22.6 24.6 45.2 29.5 4.2.8 8.5 2.3 9.5 3.1 1.7 1.4 1.3 1.5-5.1.9-10.3-.9-17.9-3.1-28.1-8.1-6.5-3.2-9.9-4.3-11.6-3.9-2.2.6-2.5.3-2.5-2.4 0-1.8-1.1-4.4-2.9-6.6-8.1-10.3-12.1-17.8-13.9-26.2-.5-2 .3-1.2 2.5 2.7 1.8 3 4.9 8 6.9 11z"/><path d="M147.6 98.9c-.3 4.5-1.4 11.6-2.2 15.8-2 9.5-1.4 19 1.6 25.8 2 4.8 2.2 4.9 3.6 3 2.5-3.4 4.4-11.6 4.4-18.9 0-4.7-1.1-11.6-3.3-20.4l-3.4-13.4-.7 8.1zm3.2 26.7c-.2 3.9-.7 6.8-1.3 6.7-1.2-.3-1.9-7.6-1-12.2 1.1-5.7 2.6-2 2.3 5.5zM185 109.9c-6.9 4.3-14.8 10.1-17.6 12.8-4.9 4.9-9.6 12.7-11 18.5l-.6 2.7 5.5-3c7.5-4 14.6-10.6 20.3-18.7 2.6-3.7 7.6-9.7 11.3-13.5 3.6-3.7 6.1-6.7 5.6-6.6-.6 0-6.6 3.6-13.5 7.8zm-8 11.2c0 1.2-9.9 11.9-11.1 11.9-2.1 0-.6-2.5 4.5-7.6 5.6-5.5 6.6-6.2 6.6-4.3zM111.3 119.2c10.4 14.2 15.7 19.4 23.2 22.9 7.3 3.3 10.5 4.3 10.5 3.2 0-1.9-6.4-11.7-10-15.3-2.1-2.1-7.8-6.1-12.7-9-4.8-2.9-10.9-6.9-13.5-9.1-2.6-2.1-4.9-3.9-5.2-3.9-.3 0 3.1 5 7.7 11.2zm17.6 10.8c7.1 5.6 9.5 10.7 3.1 6.3-5.7-3.7-11.5-10.3-9.1-10.3.5 0 3.2 1.8 6 4zM168.5 142.4c-2.2.7-5.8 2.2-7.9 3.3l-3.9 2 6.3 2.2c8.1 2.7 17.6 2.7 29 .1 4.7-1.1 11.6-2 15.4-2 3.8 0 6.6-.3 6.3-.6-.4-.4-6.8-2-14.4-3.5-14.8-3.1-24.4-3.5-30.8-1.5zm16.9 3.5c.8 1.2-2.9 2.1-9.1 2.1-5.1 0-7.2-1.4-3.5-2.3 3.2-.9 12.1-.7 12.6.2zM110.5 146.5c-2.7.8-9 1.8-13.8 2.1-4.8.4-8.4 1-8 1.4 1.1.9 20.4 4.8 27.8 5.6 4.2.4 7.2.1 10-.9 2.2-.8 6.5-2.4 9.5-3.5l5.5-2.1-4-1.7c-5.5-2.4-20.4-2.9-27-.9zm16 3.5c-.3.5-3.2 1-6.3 1-4.1 0-5.3-.3-4.2-1 2-1.3 11.3-1.3 10.5 0zM155 151.4c0 .2.7 2.3 1.5 4.7 2.4 6.7 8.6 14.1 16.2 19.1 12.3 8.1 23.3 14.7 23.3 14 0-.5-1.8-2.6-4.1-4.7-2.3-2.2-6.5-7.4-9.5-11.6-6.7-9.5-12.5-14.9-20.3-18.8-5.9-3-7.1-3.5-7.1-2.7zm18.2 15.9c1.7 2.1 2.8 4 2.5 4.4-1.3 1.3-11.7-8.3-11.7-10.8 0-1.8 6.1 2.5 9.2 6.4zM148 156.5c-2.9 6.8-4.2 14-3.5 20 .7 5.4 6.5 28.6 7.4 29.7.3.4.6-2.8.7-7 0-4.2.9-12.2 1.8-17.8 1.9-11.1 1.4-17-2.2-25.4l-2-4.5-2.2 5zm3 16c0 4.3-.4 7.5-1 7.5s-1-3.2-1-7.5.4-7.5 1-7.5 1 3.2 1 7.5zM133.4 156.5c-3.9 1.9-8.9 5.5-11.5 8.2-4.6 4.7-19.4 25.3-18.3 25.3.4 0 2.2-1.3 4-3 1.9-1.6 7.6-5.4 12.7-8.4 12.1-7.1 19.6-15 22.1-23.4 1-3.1-.8-2.9-9 1.3zm.6 5c0 2.7-11.3 12.6-12.7 11.1-.8-.7 3-5.3 7.3-8.7 3.5-2.7 5.4-3.6 5.4-2.4z"/></svg>